<svg width="54" height="54" viewBox="0 0 54 54" fill="none" xmlns="http://www.w3.org/2000/svg">
<path fill-rule="evenodd" clip-rule="evenodd" d="M27 0C41.9018 0 54 12.0982 54 27C54 41.9018 41.9018 54 27 54C12.0982 54 0 41.9018 0 27C0 12.0982 12.0982 0 27 0ZM27 2.25C40.6598 2.25 51.75 13.3402 51.75 27C51.75 40.6598 40.6598 51.75 27 51.75C13.3402 51.75 2.25 40.6598 2.25 27C2.25 13.3402 13.3402 2.25 27 2.25ZM20.25 15.1942L34.74 27L20.25 38.8418L21.7755 40.5L38.25 27L21.7462 13.5L20.25 15.1942V15.1942Z" fill="white"/>
</svg>
